<svg width="289" height="223" viewBox="0 0 289 223" fill="none" xmlns="http://www.w3.org/2000/svg">
<path d="M284.017 169.48H224.224C222.903 169.48 221.635 169.01 220.701 168.174C219.766 167.337 219.241 166.203 219.241 165.02C219.241 163.837 219.766 162.703 220.701 161.866C221.635 161.03 222.903 160.56 224.224 160.56H279.034V8.92H9.96552V160.56H184.362C185.684 160.56 186.951 161.03 187.885 161.866C188.82 162.703 189.345 163.837 189.345 165.02C189.345 166.203 188.82 167.337 187.885 168.174C186.951 169.01 185.684 169.48 184.362 169.48H4.98276C3.66125 169.48 2.39386 169.01 1.45942 168.174C0.524967 167.337 0 166.203 0 165.02V4.46C0 3.27713 0.524967 2.14272 1.45942 1.3063C2.39386 0.469892 3.66125 0 4.98276 0H284.017C285.339 0 286.606 0.469892 287.541 1.3063C288.475 2.14272 289 3.27713 289 4.46V165.02C289 166.203 288.475 167.337 287.541 168.174C286.606 169.01 285.339 169.48 284.017 169.48Z" fill="black"/>
<path d="M204.293 147.18C203.42 147.185 202.561 146.985 201.802 146.6L191.388 141.204H179.379C178.501 141.207 177.638 141.002 176.877 140.611C176.116 140.219 175.483 139.654 175.044 138.974L169.065 129.652L158.651 124.3C157.891 123.907 157.26 123.341 156.822 122.66C156.385 121.979 156.156 121.206 156.16 120.42V109.671L150.131 100.35C149.693 99.672 149.463 98.9029 149.463 98.12C149.463 97.3371 149.693 96.568 150.131 95.89L156.16 86.5686V75.82C156.156 75.0341 156.385 74.2613 156.822 73.58C157.26 72.8986 157.891 72.3327 158.651 71.9398L169.065 66.5878L175.044 57.2664C175.483 56.5858 176.116 56.0211 176.877 55.6295C177.638 55.2379 178.501 55.0333 179.379 55.0364H191.388L201.802 49.6398C202.559 49.2484 203.419 49.0423 204.293 49.0423C205.168 49.0423 206.027 49.2484 206.785 49.6398L217.199 55.0364H229.207C230.085 55.0333 230.948 55.2379 231.71 55.6295C232.471 56.0211 233.103 56.5858 233.542 57.2664L239.521 66.5878L249.935 71.9398C250.696 72.3327 251.327 72.8986 251.764 73.58C252.202 74.2613 252.43 75.0341 252.427 75.82V86.5686L258.456 95.89C258.893 96.568 259.123 97.3371 259.123 98.12C259.123 98.9029 258.893 99.672 258.456 100.35L252.427 109.671V120.42C252.43 121.206 252.202 121.979 251.764 122.66C251.327 123.341 250.696 123.907 249.935 124.3L239.521 129.652L233.542 138.974C233.103 139.654 232.471 140.219 231.71 140.611C230.948 141.002 230.085 141.207 229.207 141.204H217.199L206.785 146.6C206.025 146.985 205.166 147.185 204.293 147.18V147.18ZM182.269 132.284H192.733C193.604 132.29 194.46 132.489 195.225 132.863L204.293 137.591L213.362 132.863C214.126 132.489 214.982 132.29 215.853 132.284H226.317L231.3 124.166C231.755 123.491 232.388 122.924 233.143 122.516L242.212 118.056V108.69C242.219 107.91 242.442 107.144 242.86 106.46L248.391 98.12L243.109 90.0028C242.691 89.3187 242.468 88.5526 242.461 87.7728V78.4068L233.392 73.9468C232.637 73.5389 232.005 72.9725 231.549 72.2966L226.566 64.1794H216.102C215.231 64.173 214.375 63.9738 213.611 63.5996L204.293 58.649L195.225 63.3766C194.46 63.7508 193.604 63.95 192.733 63.9564H182.269L177.287 72.0736C176.831 72.7495 176.198 73.3159 175.443 73.7238L166.374 78.1838V87.5498C166.367 88.3296 166.145 89.0957 165.727 89.7798L160.196 98.12L165.477 106.237C165.896 106.921 166.118 107.687 166.125 108.467V117.833L175.194 122.293C175.949 122.701 176.582 123.268 177.037 123.943L182.269 132.284Z" fill="black"/>
<path d="M224.224 111.5H184.362C183.041 111.5 181.773 111.03 180.839 110.194C179.904 109.357 179.379 108.223 179.379 107.04C179.379 105.857 179.904 104.723 180.839 103.886C181.773 103.05 183.041 102.58 184.362 102.58H224.224C225.546 102.58 226.813 103.05 227.747 103.886C228.682 104.723 229.207 105.857 229.207 107.04C229.207 108.223 228.682 109.357 227.747 110.194C226.813 111.03 225.546 111.5 224.224 111.5Z" fill="black"/>
<path d="M134.534 142.72H34.8793C33.5578 142.72 32.2904 142.25 31.356 141.414C30.4215 140.577 29.8965 139.443 29.8965 138.26C29.8965 137.077 30.4215 135.943 31.356 135.106C32.2904 134.27 33.5578 133.8 34.8793 133.8H134.534C135.856 133.8 137.123 134.27 138.058 135.106C138.992 135.943 139.517 137.077 139.517 138.26C139.517 139.443 138.992 140.577 138.058 141.414C137.123 142.25 135.856 142.72 134.534 142.72Z" fill="black"/>
<path d="M134.534 115.96H34.8793C33.5578 115.96 32.2904 115.49 31.356 114.654C30.4215 113.817 29.8965 112.683 29.8965 111.5C29.8965 110.317 30.4215 109.183 31.356 108.346C32.2904 107.51 33.5578 107.04 34.8793 107.04H134.534C135.856 107.04 137.123 107.51 138.058 108.346C138.992 109.183 139.517 110.317 139.517 111.5C139.517 112.683 138.992 113.817 138.058 114.654C137.123 115.49 135.856 115.96 134.534 115.96Z" fill="black"/>
<path d="M134.534 89.2H34.8793C33.5578 89.2 32.2904 88.7301 31.356 87.8937C30.4215 87.0573 29.8965 85.9229 29.8965 84.74C29.8965 83.5571 30.4215 82.4227 31.356 81.5863C32.2904 80.7499 33.5578 80.28 34.8793 80.28H134.534C135.856 80.28 137.123 80.7499 138.058 81.5863C138.992 82.4227 139.517 83.5571 139.517 84.74C139.517 85.9229 138.992 87.0573 138.058 87.8937C137.123 88.7301 135.856 89.2 134.534 89.2Z" fill="black"/>
<path d="M134.534 62.44H34.8793C33.5578 62.44 32.2904 61.9701 31.356 61.1337C30.4215 60.2973 29.8965 59.1629 29.8965 57.98C29.8965 56.7971 30.4215 55.6627 31.356 54.8263C32.2904 53.9899 33.5578 53.52 34.8793 53.52H134.534C135.856 53.52 137.123 53.9899 138.058 54.8263C138.992 55.6627 139.517 56.7971 139.517 57.98C139.517 59.1629 138.992 60.2973 138.058 61.1337C137.123 61.9701 135.856 62.44 134.534 62.44Z" fill="black"/>
<path d="M254.121 35.68H34.8793C33.5578 35.68 32.2904 35.2101 31.356 34.3737C30.4215 33.5373 29.8965 32.4029 29.8965 31.22C29.8965 30.0371 30.4215 28.9027 31.356 28.0663C32.2904 27.2299 33.5578 26.76 34.8793 26.76H254.121C255.442 26.76 256.71 27.2299 257.644 28.0663C258.578 28.9027 259.103 30.0371 259.103 31.22C259.103 32.4029 258.578 33.5373 257.644 34.3737C256.71 35.2101 255.442 35.68 254.121 35.68Z" fill="black"/>
<path d="M224.224 93.66H184.362C183.041 93.66 181.773 93.1901 180.839 92.3537C179.904 91.5173 179.379 90.3829 179.379 89.2C179.379 88.0171 179.904 86.8827 180.839 86.0463C181.773 85.2099 183.041 84.74 184.362 84.74H224.224C225.546 84.74 226.813 85.2099 227.747 86.0463C228.682 86.8827 229.207 88.0171 229.207 89.2C229.207 90.3829 228.682 91.5173 227.747 92.3537C226.813 93.1901 225.546 93.66 224.224 93.66Z" fill="black"/>
<path d="M184.362 223C183.041 223 181.773 222.53 180.839 221.694C179.904 220.857 179.379 219.723 179.379 218.54V136.744C179.379 135.561 179.904 134.426 180.839 133.59C181.773 132.753 183.041 132.284 184.362 132.284C185.684 132.284 186.951 132.753 187.885 133.59C188.82 134.426 189.345 135.561 189.345 136.744V206.052L199.31 195.125V142.229C199.31 141.047 199.835 139.912 200.77 139.076C201.704 138.239 202.972 137.769 204.293 137.769C205.615 137.769 206.882 138.239 207.816 139.076C208.751 139.912 209.276 141.047 209.276 142.229V196.731C209.267 197.757 208.862 198.75 208.13 199.54L188.199 221.35C187.735 221.861 187.151 222.275 186.487 222.56C185.824 222.845 185.098 222.996 184.362 223V223Z" fill="black"/>
<path d="M224.224 223C223.488 222.996 222.762 222.845 222.099 222.56C221.436 222.275 220.851 221.861 220.387 221.35L200.456 199.54C199.724 198.75 199.32 197.757 199.31 196.731V142.229C199.31 141.047 199.835 139.912 200.77 139.076C201.704 138.239 202.972 137.769 204.293 137.769C205.615 137.769 206.882 138.239 207.816 139.076C208.751 139.912 209.276 141.047 209.276 142.229V195.125L219.241 206.052V136.744C219.241 135.561 219.766 134.426 220.701 133.59C221.635 132.753 222.903 132.284 224.224 132.284C225.546 132.284 226.813 132.753 227.748 133.59C228.682 134.426 229.207 135.561 229.207 136.744V218.54C229.207 219.723 228.682 220.857 227.748 221.694C226.813 222.53 225.546 223 224.224 223Z" fill="black"/>
</svg>
