<svg width="90" height="70" viewBox="0 0 90 70" fill="none" xmlns="http://www.w3.org/2000/svg">
<path d="M88.309 0H1.691C0.761 0 0 0.753 0 1.691V68.109C0 69.039 0.761 69.8 1.691 69.8H88.309C89.247 69.8 90 69.039 90 68.109V1.691C90 0.753 89.247 0 88.309 0ZM86.618 66.418H3.382V18.72H86.618V66.418V66.418ZM86.618 15.338H3.382V3.382H86.618V15.338V15.338Z" fill="black"/>
<path d="M9.46605 11.524C10.6049 11.524 11.5281 10.6008 11.5281 9.462C11.5281 8.32319 10.6049 7.4 9.46605 7.4C8.32724 7.4 7.40405 8.32319 7.40405 9.462C7.40405 10.6008 8.32724 11.524 9.46605 11.524Z" fill="black"/>
<path d="M15.902 11.524C17.0408 11.524 17.964 10.6008 17.964 9.462C17.964 8.32319 17.0408 7.4 15.902 7.4C14.7632 7.4 13.84 8.32319 13.84 9.462C13.84 10.6008 14.7632 11.524 15.902 11.524Z" fill="black"/>
<path d="M22.293 11.524C23.4318 11.524 24.355 10.6008 24.355 9.462C24.355 8.32319 23.4318 7.4 22.293 7.4C21.1541 7.4 20.231 8.32319 20.231 9.462C20.231 10.6008 21.1541 11.524 22.293 11.524Z" fill="black"/>
<path d="M59.6639 57.784H30.3389C29.7439 57.784 29.1939 57.472 28.8889 56.962C28.5829 56.452 28.5679 55.819 28.8479 55.295L43.5109 27.871C43.8049 27.321 44.3779 26.978 45.0019 26.978C45.6259 26.978 46.1989 27.322 46.4929 27.871L61.1549 55.295C61.4349 55.819 61.4199 56.452 61.1139 56.962C60.8089 57.472 60.2589 57.784 59.6639 57.784ZM33.1609 54.402H56.8419L45.0019 32.256L33.1609 54.402Z" fill="black"/>
<path d="M45.002 47.555C44.068 47.555 43.311 46.798 43.311 45.864V40.522C43.311 39.588 44.068 38.831 45.002 38.831C45.936 38.831 46.693 39.588 46.693 40.522V45.864C46.693 46.798 45.936 47.555 45.002 47.555Z" fill="black"/>
<path d="M45 52.238C44.56 52.238 44.121 52.06 43.808 51.748C43.495 51.427 43.309 50.996 43.309 50.547C43.309 50.099 43.495 49.668 43.808 49.355C44.442 48.721 45.567 48.721 46.201 49.355C46.514 49.668 46.691 50.1 46.691 50.547C46.691 50.995 46.513 51.426 46.201 51.748C45.879 52.06 45.448 52.238 45 52.238Z" fill="black"/>
</svg>
