<svg width="80" height="62" viewBox="0 0 80 62" fill="none" xmlns="http://www.w3.org/2000/svg">
<path d="M69.2404 32.4603V19.6096H70.8259C71.6604 19.6096 72.2445 18.6917 71.8272 17.9407L67.8219 10.0134C67.4046 9.26241 66.7371 8.59484 65.9026 8.34451L58.8932 5.7577C58.1422 5.50736 57.2243 5.50736 56.4733 5.7577L49.5473 8.26106C48.7128 8.59485 48.0453 9.17896 47.6281 9.92997L43.6227 17.8573C43.2054 18.6083 43.7896 19.5262 44.624 19.5262H46.2095V25.1171C43.2889 25.2005 40.4517 25.2839 37.7815 25.3674C37.2808 25.3674 36.8636 25.8681 36.8636 26.3687V43.5585C36.8636 44.1426 37.2808 44.5598 37.8649 44.5598H77.0009C78.2525 44.5598 79.2539 43.5585 79.2539 42.3068V35.214C79.1704 33.9623 75.1651 33.0444 69.2404 32.4603ZM41.62 31.7927C40.6186 31.8761 39.7007 31.8761 38.7828 31.8761V27.2866C39.7007 27.2032 40.6186 27.2032 41.62 27.2032V31.7927ZM46.2095 31.7092C45.2916 31.7092 44.4571 31.7092 43.5392 31.7927V27.2032C44.3737 27.2032 45.2916 27.1197 46.2095 27.1197V31.7092ZM54.8878 13.2678C54.8878 12.8506 55.2216 12.6002 55.5554 12.6002H59.7276C60.1449 12.6002 60.3952 12.934 60.3952 13.2678V16.2718C60.3952 16.6891 60.0614 16.9394 59.7276 16.9394H55.5554C55.1381 16.9394 54.8878 16.6056 54.8878 16.2718V13.2678ZM61.8138 21.5289L57.725 25.7012L53.5527 21.5289H61.8138ZM51.8838 23.1144L56.0561 27.2866L51.8838 31.5424V23.1144ZM53.6361 33.0444L57.725 28.8721L61.8972 33.0444H53.6361ZM63.5661 31.3755L59.3939 27.2032L63.5661 22.9475V31.3755Z" fill="#5553FF"/>
<path d="M5.40465 7.3432H7.57423C7.57423 7.59354 7.49079 7.92732 7.49079 8.17766C7.49079 11.5155 10.161 14.1857 13.4989 14.1857C16.8367 14.1857 19.5069 11.5155 19.5069 8.17766C19.5069 7.92732 19.4235 7.59354 19.4235 7.3432H21.5931C22.1772 7.3432 22.6779 6.84253 22.6779 6.25841C22.6779 5.67429 22.1772 5.17362 21.5931 5.17362H19.4235C19.0063 2.25303 16.5029 0 13.4989 0C10.4948 0 7.99146 2.25303 7.57423 5.17362H5.40465C4.82053 5.17362 4.31986 5.67429 4.31986 6.25841C4.4033 6.84253 4.82053 7.3432 5.40465 7.3432Z" fill="#5553FF"/>
<path d="M37.3643 8.42787C37.3643 7.84375 36.8636 7.34308 36.2795 7.34308C35.6954 7.34308 35.1947 7.84375 35.1947 8.42787V15.0201C35.1947 16.0214 34.3602 16.8559 33.3589 16.8559H31.9403V8.42787C31.9403 7.84375 31.4396 7.34308 30.8555 7.34308C30.2714 7.34308 29.7707 7.84375 29.7707 8.42787V16.9393H28.3522C27.3508 16.9393 26.5164 16.1049 26.5164 15.1035V8.51132C26.5164 7.9272 26.0157 7.42652 25.4316 7.42652C24.8474 7.42652 24.5137 7.84375 24.5137 8.42787V15.0201C24.5137 17.1896 26.266 19.0254 28.519 19.0254H29.9376V25.5342C28.519 25.4508 26.0991 24.9501 25.0978 23.8653C24.9309 23.6149 24.5137 22.697 24.1799 22.1129C22.9282 19.5261 21.009 15.5207 17.087 15.5207H10.2445C5.57154 15.5207 3.73574 20.444 2.73439 23.1143C2.5675 23.4481 2.48405 23.7818 2.40061 24.0322C1.39926 26.3686 0.231025 32.5436 0.0641342 33.2112C-0.269648 34.7132 0.731698 36.2152 2.31716 36.549C2.48405 36.549 2.65094 36.6324 2.90128 36.6324C4.23641 36.6324 5.40464 35.7145 5.65498 34.3794C6.15565 31.9595 7.07355 27.6203 7.65767 26.2852C7.74112 26.2018 7.74112 26.0349 7.82456 25.868L7.99146 35.047L5.15431 58.6621C4.98742 60.331 6.15565 61.7495 7.74112 61.9999C7.82456 61.9999 7.99146 61.9999 8.0749 61.9999C9.57692 61.9999 10.8286 60.9151 10.9955 59.3296L13.4989 37.8841L16.0022 59.3296C16.1691 60.9985 17.6711 62.1668 19.34 61.9164C21.0089 61.7495 22.1772 60.2475 21.9269 58.5786L19.1732 34.9635L19.34 25.4507C19.7573 26.2852 20.1745 27.0362 20.7586 27.7038C23.4289 30.6244 28.1018 31.0416 29.7707 31.125V60.4144C29.7707 60.9985 30.2714 61.4992 30.8555 61.4992C31.4396 61.4992 31.9403 60.9985 31.9403 60.4144V30.7078C32.6913 30.2071 33.192 29.3727 33.192 28.3713C33.192 27.37 32.6913 26.5355 31.9403 26.0349V18.942H33.3589C35.5285 18.942 37.3643 17.1896 37.3643 14.9366V8.42787Z" fill="#5553FF"/>
</svg>
